<?xml version="1.0" encoding="utf-8"?>
<!-- Generator: Adobe Illustrator 22.1.0, SVG Export Plug-In . SVG Version: 6.00 Build 0)  -->
<svg version="1.1" id="Layer_1" xmlns="http://www.w3.org/2000/svg" xmlns:xlink="http://www.w3.org/1999/xlink" x="0px" y="0px"
	 viewBox="0 0 277 91.5" style="enable-background:new 0 0 277 91.5;" xml:space="preserve">
<style type="text/css">
	.st0{fill:#FFFFFF;}
</style>
<path class="st0" d="M208.2,27.1c-0.2-0.3-0.4-0.6-0.8-0.8c-0.4-0.1-0.8-0.1-1.1,0c-0.3,0.2-0.6,0.4-0.8,0.8c-0.1,0.4-0.1,0.8,0,1.1
	c0.2,0.3,0.4,0.6,0.8,0.8c0.4,0.1,0.8,0.1,1.1,0c0.3-0.2,0.6-0.4,0.8-0.8C208.4,27.8,208.4,27.4,208.2,27.1 M216.6,38.9
	c-0.2-0.3-0.4-0.6-0.8-0.8c-0.4-0.1-0.8-0.1-1.1,0c-0.3,0.2-0.6,0.4-0.8,0.8c-0.1,0.4-0.1,0.8,0,1.1c0.2,0.3,0.4,0.6,0.8,0.8
	c0.4,0.1,0.8,0.1,1.1,0c0.3-0.2,0.6-0.4,0.8-0.8C216.8,39.6,216.8,39.2,216.6,38.9z M211.7,44.6c-0.2-0.3-0.4-0.6-0.8-0.8
	c-0.4-0.1-0.8-0.1-1.1,0c-0.3,0.2-0.6,0.4-0.8,0.8c-0.1,0.4-0.1,0.8,0,1.1c0.2,0.3,0.4,0.6,0.8,0.8c0.4,0.1,0.8,0.1,1.1,0
	c0.3-0.2,0.6-0.4,0.8-0.8C211.9,45.3,211.8,44.9,211.7,44.6z M189.5,66.4c-0.2-0.3-0.4-0.6-0.8-0.8c-0.4-0.1-0.8-0.1-1.1,0
	c-0.3,0.2-0.6,0.4-0.8,0.8c-0.1,0.4-0.1,0.8,0,1.1c0.2,0.3,0.4,0.6,0.8,0.8c0.4,0.1,0.8,0.1,1.1,0c0.3-0.2,0.6-0.4,0.8-0.8
	C189.7,67.2,189.7,66.8,189.5,66.4z M165.2,42.8c-0.2-0.3-0.4-0.6-0.8-0.8c-0.4-0.1-0.8-0.1-1.1,0c-0.3,0.2-0.6,0.4-0.8,0.8
	c-0.1,0.4-0.1,0.8,0,1.1c0.2,0.3,0.4,0.6,0.8,0.8c0.4,0.1,0.8,0.1,1.1,0c0.3-0.2,0.6-0.4,0.8-0.8C165.4,43.5,165.3,43.1,165.2,42.8z
	 M189.2,18.8c-0.2-0.3-0.4-0.6-0.8-0.8c-0.4-0.1-0.8-0.1-1.1,0c-0.3,0.2-0.6,0.4-0.8,0.8c-0.1,0.4-0.1,0.8,0,1.1
	c0.2,0.3,0.4,0.6,0.8,0.8c0.4,0.1,0.8,0.1,1.1,0c0.3-0.2,0.6-0.4,0.8-0.8C189.4,19.5,189.3,19.1,189.2,18.8z M190,30.2
	c-0.2-0.3-0.4-0.6-0.8-0.8c-0.4-0.1-0.8-0.1-1.1,0c-0.3,0.2-0.6,0.4-0.8,0.8c-0.1,0.4-0.1,0.8,0,1.1c0.2,0.3,0.4,0.6,0.8,0.8
	c0.4,0.1,0.8,0.1,1.1,0c0.3-0.2,0.6-0.4,0.8-0.8C190.2,30.9,190.2,30.5,190,30.2z M198.5,38c-0.2-0.3-0.4-0.6-0.8-0.8
	c-0.4-0.1-0.8-0.1-1.1,0c-0.3,0.2-0.6,0.4-0.8,0.8c-0.1,0.4-0.1,0.8,0,1.1c0.2,0.3,0.4,0.6,0.8,0.8c0.4,0.1,0.8,0.1,1.1,0
	c0.3-0.2,0.6-0.4,0.8-0.8C198.7,38.8,198.6,38.4,198.5,38z M179.5,56.7c-0.2-0.3-0.4-0.6-0.8-0.8c-0.4-0.1-0.8-0.1-1.1,0
	c-0.3,0.2-0.6,0.4-0.8,0.8c-0.1,0.4-0.1,0.8,0,1.1c0.2,0.3,0.4,0.6,0.8,0.8c0.4,0.1,0.8,0.1,1.1,0c0.3-0.2,0.6-0.4,0.8-0.8
	C179.6,57.5,179.6,57.1,179.5,56.7z M170.2,72.7c-0.2-0.3-0.4-0.6-0.8-0.8c-0.4-0.1-0.8-0.1-1.1,0c-0.3,0.2-0.6,0.4-0.8,0.8
	c-0.1,0.4-0.1,0.8,0,1.1c0.2,0.3,0.4,0.6,0.8,0.8c0.4,0.1,0.8,0.1,1.1,0c0.3-0.2,0.6-0.4,0.8-0.8C170.4,73.4,170.4,73,170.2,72.7z
	 M170.2,57.6c-0.2-0.3-0.4-0.6-0.8-0.8c-0.4-0.1-0.8-0.1-1.1,0c-0.3,0.2-0.6,0.4-0.8,0.8c-0.1,0.4-0.1,0.8,0,1.1
	c0.2,0.3,0.4,0.6,0.8,0.8c0.4,0.1,0.8,0.1,1.1,0c0.3-0.2,0.6-0.4,0.8-0.8C170.4,58.4,170.4,58,170.2,57.6z M151.5,49
	c-0.2-0.3-0.4-0.6-0.8-0.8c-0.4-0.1-0.8-0.1-1.1,0c-0.3,0.2-0.6,0.4-0.8,0.8c-0.1,0.4-0.1,0.8,0,1.1c0.2,0.3,0.4,0.6,0.8,0.8
	c0.4,0.1,0.8,0.1,1.1,0c0.3-0.2,0.6-0.4,0.8-0.8C151.6,49.8,151.6,49.4,151.5,49z M151.5,65.2c-0.2-0.3-0.4-0.6-0.8-0.8
	c-0.4-0.1-0.8-0.1-1.1,0c-0.3,0.2-0.6,0.4-0.8,0.8c-0.1,0.4-0.1,0.8,0,1.1c0.2,0.3,0.4,0.6,0.8,0.8c0.4,0.1,0.8,0.1,1.1,0
	c0.3-0.2,0.6-0.4,0.8-0.8C151.6,66,151.6,65.6,151.5,65.2z M102.8,55.7c-0.2-0.3-0.4-0.6-0.8-0.8c-0.4-0.1-0.8-0.1-1.1,0
	c-0.3,0.2-0.6,0.4-0.8,0.8c-0.1,0.4-0.1,0.8,0,1.1c0.2,0.3,0.4,0.6,0.8,0.8c0.4,0.1,0.8,0.1,1.1,0c0.3-0.2,0.6-0.4,0.8-0.8
	C103,56.4,103,56,102.8,55.7z M77.8,12.7c-0.2-0.3-0.4-0.6-0.8-0.8c-0.4-0.1-0.8-0.1-1.1,0c-0.3,0.2-0.6,0.4-0.8,0.8
	c-0.1,0.4-0.1,0.8,0,1.1c0.2,0.3,0.4,0.6,0.8,0.8c0.4,0.1,0.8,0.1,1.1,0c0.3-0.2,0.6-0.4,0.8-0.8C78,13.4,78,13.1,77.8,12.7z
	 M53,23.9c-0.2-0.3-0.4-0.6-0.8-0.8c-0.4-0.1-0.8-0.1-1.1,0c-0.3,0.2-0.6,0.4-0.8,0.8c-0.1,0.4-0.1,0.8,0,1.1
	c0.2,0.3,0.4,0.6,0.8,0.8c0.4,0.1,0.8,0.1,1.1,0c0.3-0.2,0.6-0.4,0.8-0.8C53.1,24.6,53.1,24.2,53,23.9z M60.4,75.2
	c-0.2-0.3-0.4-0.6-0.8-0.8c-0.4-0.1-0.8-0.1-1.1,0c-0.3,0.2-0.6,0.4-0.8,0.8c-0.1,0.4-0.1,0.8,0,1.1c0.2,0.3,0.4,0.6,0.8,0.8
	c0.4,0.1,0.8,0.1,1.1,0c0.3-0.2,0.6-0.4,0.8-0.8C60.6,76,60.6,75.6,60.4,75.2z M48.1,68.8c-0.2-0.3-0.4-0.6-0.8-0.8
	c-0.4-0.1-0.8-0.1-1.1,0c-0.3,0.2-0.6,0.4-0.8,0.8c-0.1,0.4-0.1,0.8,0,1.1c0.2,0.3,0.4,0.6,0.8,0.8c0.4,0.1,0.8,0.1,1.1,0
	c0.3-0.2,0.6-0.4,0.8-0.8C48.3,69.6,48.3,69.2,48.1,68.8z M66.4,66.8c-0.2-0.3-0.4-0.6-0.8-0.8c-0.4-0.1-0.8-0.1-1.1,0
	c-0.3,0.2-0.6,0.4-0.8,0.8c-0.1,0.4-0.1,0.8,0,1.1c0.2,0.3,0.4,0.6,0.8,0.8c0.4,0.1,0.8,0.1,1.1,0c0.3-0.2,0.6-0.4,0.8-0.8
	C66.5,67.5,66.5,67.1,66.4,66.8z M53.6,61.2c-0.2-0.3-0.4-0.6-0.8-0.8c-0.4-0.1-0.8-0.1-1.1,0c-0.3,0.2-0.6,0.4-0.8,0.8
	c-0.1,0.4-0.1,0.8,0,1.1c0.2,0.3,0.4,0.6,0.8,0.8c0.4,0.1,0.8,0.1,1.1,0c0.3-0.2,0.6-0.4,0.8-0.8C53.8,61.9,53.8,61.5,53.6,61.2z
	 M44.7,52.5c-0.2-0.3-0.4-0.6-0.8-0.8c-0.4-0.1-0.8-0.1-1.1,0c-0.3,0.2-0.6,0.4-0.8,0.8c-0.1,0.4-0.1,0.8,0,1.1
	c0.2,0.3,0.4,0.6,0.8,0.8c0.4,0.1,0.8,0.1,1.1,0c0.3-0.2,0.6-0.4,0.8-0.8C44.8,53.3,44.8,52.9,44.7,52.5z M30.6,45.2
	c-0.2-0.3-0.4-0.6-0.8-0.8c-0.4-0.1-0.8-0.1-1.1,0c-0.3,0.2-0.6,0.4-0.8,0.8c-0.1,0.4-0.1,0.8,0,1.1c0.2,0.3,0.4,0.6,0.8,0.8
	c0.4,0.1,0.8,0.1,1.1,0c0.3-0.2,0.6-0.4,0.8-0.8C30.8,45.9,30.8,45.5,30.6,45.2z M189.9,64l17.3-17.3l0-0.1
	c-0.4-0.8-0.4-1.8-0.1-2.7c0.3-0.9,1-1.6,1.8-2c0.8-0.4,1.8-0.4,2.7-0.1c0.9,0.3,1.6,1,2,1.8c0.4,0.8,0.4,1.8,0.1,2.7
	c-0.3,0.9-1,1.6-1.8,2c-0.8,0.4-1.8,0.4-2.7,0.1c-0.2-0.1-0.4-0.2-0.5-0.2l-17.3,17.3l0,0.1c0.4,0.8,0.4,1.8,0.1,2.7
	c-0.3,0.9-1,1.6-1.8,2c-0.8,0.4-1.8,0.4-2.7,0.1c-0.9-0.3-1.6-1-2-1.8c-0.4-0.8-0.4-1.8-0.1-2.7c0.3-0.9,1-1.6,1.8-2
	c0.8-0.4,1.8-0.4,2.7-0.1C189.6,63.8,189.8,63.9,189.9,64z M180,54.4l14.1-14.1c0-0.1-0.1-0.1-0.1-0.2c-0.4-0.8-0.4-1.8-0.1-2.7
	c0.3-0.9,1-1.6,1.8-2c0.8-0.4,1.8-0.4,2.7-0.1c0.9,0.3,1.6,1,2,1.8c0.4,0.8,0.4,1.8,0.1,2.7c-0.3,0.9-1,1.6-1.8,2
	c-0.8,0.4-1.8,0.4-2.7,0.1c-0.1-0.1-0.3-0.1-0.4-0.2l-14.2,14.2c0.3,0.8,0.4,1.7,0.1,2.6c-0.3,0.9-1,1.6-1.8,2
	c-0.8,0.4-1.8,0.4-2.7,0.1c-0.9-0.3-1.6-1-2-1.8c-0.4-0.8-0.4-1.8-0.1-2.7c0.3-0.9,1-1.6,1.8-2c0.8-0.4,1.8-0.4,2.7-0.1
	C179.6,54.1,179.8,54.3,180,54.4z M190,34v6.5V41l-0.3,0.3l-9.2,9.2l-0.3,0.3h-0.4h-26.3l0,0.1c-0.3,0.9-1,1.6-1.8,2
	c-0.8,0.4-1.8,0.4-2.7,0.1c-0.9-0.3-1.6-1-2-1.8c-0.4-0.8-0.4-1.8-0.1-2.7c0.3-0.9,1-1.6,1.8-2c0.8-0.4,1.8-0.4,2.7-0.1
	c0.9,0.3,1.6,1,2,1.8c0.1,0.2,0.1,0.4,0.2,0.5h25.8l8.6-8.6v-5.9c-0.2,0-0.3-0.1-0.5-0.1c-0.9-0.3-1.6-1-2-1.8
	c-0.4-0.8-0.4-1.8-0.1-2.7c0.3-0.9,1-1.6,1.8-2c0.8-0.4,1.8-0.4,2.7-0.1c0.9,0.3,1.6,1,2,1.8c0.4,0.8,0.4,1.8,0.1,2.7
	c-0.3,0.9-1,1.6-1.8,2C190.1,34,190,34,190,34z M165.6,40.4l19.2-19.2c-0.1-0.1-0.1-0.2-0.2-0.3c-0.4-0.8-0.4-1.8-0.1-2.7
	c0.3-0.9,1-1.6,1.8-2c0.8-0.4,1.8-0.4,2.7-0.1c0.9,0.3,1.6,1,2,1.8c0.4,0.8,0.4,1.8,0.1,2.7c-0.3,0.9-1,1.6-1.8,2
	c-0.8,0.4-1.8,0.4-2.7,0.1c-0.1,0-0.2-0.1-0.3-0.1L167,41.9l0,0.1c0.4,0.8,0.4,1.8,0.1,2.7c-0.3,0.9-1,1.6-1.8,2
	c-0.8,0.4-1.8,0.4-2.7,0.1c-0.9-0.3-1.6-1-2-1.8c-0.4-0.8-0.4-1.8-0.1-2.7c0.3-0.9,1-1.6,1.8-2c0.8-0.4,1.8-0.4,2.7-0.1
	C165.3,40.2,165.5,40.3,165.6,40.4z M54.1,58.8l20.2-20.2l0.3-0.3H75h39h0.4l0.3,0.3l33.7,33.7h17.1c0-0.1,0-0.1,0.1-0.2
	c0.3-0.9,1-1.6,1.8-2c0.8-0.4,1.8-0.4,2.7-0.1c0.9,0.3,1.6,1,2,1.8c0.4,0.8,0.4,1.8,0.1,2.7c-0.3,0.9-1,1.6-1.8,2
	c-0.8,0.4-1.8,0.4-2.7,0.1c-0.9-0.3-1.6-1-2-1.8c-0.1-0.2-0.1-0.3-0.2-0.5H148h-0.4l-0.3-0.3l-33.7-33.7H75.4l-20,20l0,0.1
	c0.4,0.8,0.4,1.8,0.1,2.7c-0.3,0.9-1,1.6-1.8,2c-0.8,0.4-1.8,0.4-2.7,0.1c-0.9-0.3-1.6-1-2-1.8c-0.4-0.8-0.4-1.8-0.1-2.7
	c0.3-0.9,1-1.6,1.8-2c0.8-0.4,1.8-0.4,2.7-0.1C53.7,58.6,53.9,58.7,54.1,58.8z M9.5,21c-3.6,5.4-4.5,13.1-5,23.8h21.4
	c0-0.1,0-0.1,0.1-0.2c0.3-0.9,1-1.6,1.8-2c0.8-0.4,1.8-0.4,2.7-0.1c0.9,0.3,1.6,1,2,1.8c0.4,0.8,0.4,1.8,0.1,2.7
	c-0.3,0.9-1,1.6-1.8,2c-0.8,0.4-1.8,0.4-2.7,0.1c-0.9-0.3-1.6-1-2-1.8c-0.1-0.1-0.1-0.3-0.2-0.4H4.5c0.2,5.1,0.6,9.6,1.2,13.5h18
	l27-27v-5.3c-0.1,0-0.2-0.1-0.4-0.1c-0.9-0.3-1.6-1-2-1.8c-0.4-0.8-0.4-1.8-0.1-2.7c0.3-0.9,1-1.6,1.8-2c0.8-0.4,1.8-0.4,2.7-0.1
	c0.9,0.3,1.6,1,2,1.8c0.4,0.8,0.4,1.8,0.1,2.7c-0.3,0.9-1,1.6-1.8,2c-0.1,0-0.2,0.1-0.3,0.1v5.9v0.4l-0.3,0.3L24.9,62l-0.3,0.3h-0.4
	h-18c0.7,3.2,1.8,6,3.3,8.3c2.8,4.2,7.4,7.1,14.9,9l49.9-49.9l0.3-0.3H75h39h0.4l0.3,0.3l27.4,27.4h23.4l0-0.1c0.3-0.9,1-1.6,1.8-2
	c0.8-0.4,1.8-0.4,2.7-0.1c0.9,0.3,1.6,1,2,1.8c0.4,0.8,0.4,1.8,0.1,2.7c-0.3,0.9-1,1.6-1.8,2c-0.8,0.4-1.8,0.4-2.7,0.1
	c-0.9-0.3-1.6-1-2-1.8c-0.1-0.2-0.2-0.4-0.2-0.6h-23.7h-0.4l-0.3-0.3l-27.4-27.4H75.4L26.7,80.1c1.5,0.3,3.2,0.6,5,0.9l0,0
	c3.7,0.6,7.4,1.2,11,1.7l3-3v-6.9c-0.1,0-0.1,0-0.2-0.1c-0.9-0.3-1.6-1-2-1.8c-0.4-0.8-0.4-1.8-0.1-2.7c0.3-0.9,1-1.6,1.8-2
	c0.8-0.4,1.8-0.4,2.7-0.1c0.9,0.3,1.6,1,2,1.8c0.4,0.8,0.4,1.8,0.1,2.7c-0.3,0.9-1,1.6-1.8,2c-0.1,0.1-0.3,0.1-0.4,0.2v7.3v0.4
	l-0.3,0.3L45.3,83c4,0.5,8,1,11.9,1.5l6.8-6.8v-7c-0.1,0-0.1,0-0.2-0.1c-0.9-0.3-1.6-1-2-1.8c-0.4-0.8-0.4-1.8-0.1-2.7
	c0.3-0.9,1-1.6,1.8-2c0.8-0.4,1.8-0.4,2.7-0.1c0.9,0.3,1.6,1,2,1.8c0.4,0.8,0.4,1.8,0.1,2.7c-0.3,0.9-1,1.6-1.8,2
	c-0.1,0.1-0.3,0.1-0.4,0.2v7.4v0.4l-0.3,0.3l-5.9,5.9c28,2.9,54.5,3,79.7,0.6l-28.1-28.1h-6.5c0,0.1-0.1,0.2-0.1,0.3
	c-0.3,0.9-1,1.6-1.8,2c-0.8,0.4-1.8,0.4-2.7,0.1c-0.9-0.3-1.6-1-2-1.8C98,57,97.9,56,98.2,55.1c0.3-0.9,1-1.6,1.8-2
	c0.8-0.4,1.8-0.4,2.7-0.1c0.9,0.3,1.6,1,2,1.8c0,0.1,0.1,0.2,0.1,0.3h7h0.4l0.3,0.3l29.6,29.6c2.2-0.2,4.4-0.5,6.6-0.7l-35-35H75.4
	L60,64.7v7.7c0.1,0,0.2,0.1,0.3,0.1c0.9,0.3,1.6,1,2,1.8c0.4,0.8,0.4,1.8,0.1,2.7c-0.3,0.9-1,1.6-1.8,2c-0.8,0.4-1.8,0.4-2.7,0.1
	c-0.9-0.3-1.6-1-2-1.8c-0.4-0.8-0.4-1.8-0.1-2.7c0.3-0.9,1-1.6,1.8-2c0.1-0.1,0.2-0.1,0.3-0.1v-8.2v-0.4l0.3-0.3l16-16l0.3-0.3H75
	h39h0.4l0.3,0.3L151.3,84c2.1-0.3,4.1-0.5,6.2-0.8c38.5-5.6,73.8-16.9,106.9-32.5c4.9-2.3,8.1-3.9,8.2-4.8c0.1-0.8-2.3-2.2-8.4-5.1
	c-5.7-2.7-11.4-5.2-17.2-7.6l-7.2,7.2l-0.3,0.3h-0.4h-20.5l0,0.1c-0.3,0.9-1,1.6-1.8,2c-0.8,0.4-1.8,0.4-2.7,0.1
	c-0.9-0.3-1.6-1-2-1.8c-0.4-0.8-0.4-1.8-0.1-2.7c0.3-0.9,1-1.6,1.8-2c0.8-0.4,1.8-0.4,2.7-0.1c0.9,0.3,1.6,1,2,1.8
	c0.1,0.2,0.1,0.4,0.2,0.5h20l6.3-6.3c-19.1-7.8-39-14.2-59.9-18.9l-30,30l-0.3,0.3h-0.4h-19.1h-0.4l-0.3-0.3l-20.8-20.8H75.4l-29,29
	c0,0,0,0.1,0,0.1c0.4,0.8,0.4,1.8,0.1,2.7c-0.3,0.9-1,1.6-1.8,2c-0.8,0.4-1.8,0.4-2.7,0.1c-0.9-0.3-1.6-1-2-1.8
	c-0.4-0.8-0.4-1.8-0.1-2.7c0.3-0.9,1-1.6,1.8-2c0.8-0.4,1.8-0.4,2.7-0.1c0.2,0.1,0.3,0.1,0.5,0.2l29.2-29.2l0.3-0.3H75h39h0.4
	l0.3,0.3l20.8,20.8h18.3l1.1-1.1l-5.9-5.9h-14.9h-0.4l-0.3-0.3l-19.9-19.9H79.8l0,0c-0.3,0.9-1,1.6-1.8,2c-0.8,0.4-1.8,0.4-2.7,0.1
	c-0.9-0.3-1.6-1-2-1.8C73,14,72.9,13,73.2,12.1c0.3-0.9,1-1.6,1.8-2c0.8-0.4,1.8-0.4,2.7-0.1c0.9,0.3,1.6,1,2,1.8
	c0.1,0.2,0.2,0.4,0.2,0.6h34.2h0.4l0.3,0.3l19.9,19.9h14.9h0.4l0.3,0.3l6.2,6.2l26.2-26.2c-8.3-1.8-16.8-3.3-25.4-4.6
	C118.9,2.8,77.3,3,31.7,10.5l0,0C19.7,12.3,13.1,15.5,9.5,21z M0,45.7c0.5-12,1.5-20.8,5.8-27.2C10.1,11.9,17.7,8,31.1,6.1l0,0
	c46-7.6,88-7.8,126.9-2.2c38.9,5.6,74.7,17.1,108.1,32.9c8.3,3.9,11.4,6.7,10.9,9.9c-0.6,3-4.5,5.1-10.7,8
	C232.8,70.5,197,82,158.1,87.6c-38.9,5.6-81,5.4-127-2.2l0,0c-13.4-1.9-20.9-5.8-25.3-12.4C1.5,66.6,0.5,57.8,0,45.8V45.7z
	 M208.1,24.4c0.9,0.3,1.6,1,2,1.8c0.4,0.8,0.4,1.8,0.1,2.7c-0.3,0.9-1,1.6-1.8,2c-0.1,0.1-0.3,0.1-0.5,0.2v7.8v0.4l-0.3,0.3
	l-27.1,27.1l-0.3,0.3h-0.4h-26.4c0,0,0,0.1,0,0.1c-0.3,0.9-1,1.6-1.8,2c-0.8,0.4-1.8,0.4-2.7,0.1c-0.9-0.3-1.6-1-2-1.8
	c-0.4-0.8-0.4-1.8-0.1-2.7c0.3-0.9,1-1.6,1.8-2c0.8-0.4,1.8-0.4,2.7-0.1c0.9,0.3,1.6,1,2,1.8c0.1,0.2,0.1,0.3,0.2,0.5h25.9
	l26.5-26.5V31c-0.1,0-0.1,0-0.2-0.1c-0.9-0.3-1.6-1-2-1.8c-0.4-0.8-0.4-1.8-0.1-2.7c0.3-0.9,1-1.6,1.8-2
	C206.3,24.2,207.2,24.1,208.1,24.4z"/>
</svg>
